<svg width="89" height="29" viewBox="0 0 89 29" fill="none" xmlns="http://www.w3.org/2000/svg">
<path d="M7.64 23.08H9.65V28.51H7.64V23.08ZM7.91 22.6V6.19L9.35 5.86V22.66L7.91 22.6ZM7.64 0.549998H9.65V5.5L7.64 5.8V0.549998ZM14.27 9.28C14.13 9.14 13.87 8.95 13.49 8.71C13.13 8.47 12.68 8.24 12.14 8.02C11.62 7.8 11.05 7.61 10.43 7.45C9.81 7.27 9.18 7.18 8.54 7.18C7.42 7.18 6.57 7.39 5.99 7.81C5.43 8.23 5.15 8.82 5.15 9.58C5.15 10.16 5.33 10.62 5.69 10.96C6.05 11.3 6.59 11.59 7.31 11.83C8.03 12.07 8.93 12.33 10.01 12.61C11.41 12.95 12.62 13.37 13.64 13.87C14.68 14.35 15.47 14.99 16.01 15.79C16.57 16.57 16.85 17.61 16.85 18.91C16.85 20.05 16.64 21.03 16.22 21.85C15.8 22.65 15.22 23.3 14.48 23.8C13.74 24.3 12.89 24.67 11.93 24.91C10.99 25.13 10 25.24 8.96 25.24C7.9 25.24 6.83 25.13 5.75 24.91C4.69 24.69 3.67 24.38 2.69 23.98C1.73 23.56 0.84 23.06 0.0200001 22.48L1.85 18.91C2.03 19.09 2.35 19.33 2.81 19.63C3.27 19.91 3.82 20.2 4.46 20.5C5.12 20.78 5.84 21.02 6.62 21.22C7.42 21.42 8.22 21.52 9.02 21.52C10.14 21.52 10.99 21.33 11.57 20.95C12.15 20.57 12.44 20.03 12.44 19.33C12.44 18.69 12.21 18.19 11.75 17.83C11.29 17.47 10.64 17.16 9.8 16.9C8.98 16.62 8.02 16.32 6.92 16C5.56 15.62 4.43 15.2 3.53 14.74C2.63 14.26 1.96 13.66 1.52 12.94C1.08 12.22 0.86 11.32 0.86 10.24C0.86 8.78 1.21 7.56 1.91 6.58C2.61 5.58 3.55 4.83 4.73 4.33C5.91 3.81 7.22 3.55 8.66 3.55C9.66 3.55 10.6 3.66 11.48 3.88C12.38 4.1 13.22 4.39 14 4.75C14.78 5.11 15.48 5.5 16.1 5.92L14.27 9.28ZM19.1537 25C19.1537 24.1 19.2237 23.29 19.3637 22.57C19.5037 21.85 19.7437 21.18 20.0837 20.56C20.4437 19.94 20.9237 19.36 21.5237 18.82C22.1437 18.26 22.9237 17.72 23.8637 17.2C24.6837 16.76 25.4037 16.38 26.0237 16.06C26.6437 15.72 27.1637 15.41 27.5837 15.13C28.0237 14.85 28.3537 14.57 28.5737 14.29C28.7937 13.99 28.9037 13.65 28.9037 13.27C28.9037 12.87 28.7937 12.51 28.5737 12.19C28.3537 11.85 28.0437 11.58 27.6437 11.38C27.2437 11.18 26.7437 11.08 26.1437 11.08C25.6637 11.08 25.2137 11.14 24.7937 11.26C24.3937 11.38 24.0137 11.55 23.6537 11.77C23.3137 11.99 22.9937 12.24 22.6937 12.52C22.3937 12.78 22.1237 13.06 21.8837 13.36L19.3337 10.42C19.6137 10.14 19.9837 9.84 20.4437 9.52C20.9237 9.18 21.4837 8.87 22.1237 8.59C22.7837 8.29 23.5037 8.05 24.2837 7.87C25.0837 7.67 25.9337 7.57 26.8337 7.57C28.1937 7.57 29.3537 7.79 30.3137 8.23C31.2737 8.65 32.0037 9.24 32.5037 10C33.0237 10.76 33.2837 11.65 33.2837 12.67C33.2837 13.37 33.1537 13.99 32.8937 14.53C32.6337 15.07 32.3037 15.55 31.9037 15.97C31.5037 16.37 31.0637 16.73 30.5837 17.05C30.1237 17.37 29.6737 17.65 29.2337 17.89C28.6137 18.21 28.0537 18.51 27.5537 18.79C27.0537 19.05 26.6137 19.32 26.2337 19.6C25.8537 19.86 25.5137 20.13 25.2137 20.41C24.9337 20.69 24.6837 21.01 24.4637 21.37H33.6137V25H19.1537ZM51.8973 16.21C51.8973 17.97 51.5573 19.54 50.8773 20.92C50.2173 22.28 49.2973 23.35 48.1173 24.13C46.9573 24.91 45.6373 25.3 44.1573 25.3C42.6773 25.3 41.3473 24.91 40.1673 24.13C39.0073 23.35 38.0873 22.28 37.4073 20.92C36.7473 19.54 36.4173 17.97 36.4173 16.21C36.4173 14.45 36.7473 12.89 37.4073 11.53C38.0873 10.15 39.0073 9.07 40.1673 8.29C41.3473 7.49 42.6773 7.09 44.1573 7.09C45.6373 7.09 46.9573 7.49 48.1173 8.29C49.2973 9.07 50.2173 10.15 50.8773 11.53C51.5573 12.89 51.8973 14.45 51.8973 16.21ZM47.8473 16.21C47.8473 15.13 47.6873 14.19 47.3673 13.39C47.0673 12.57 46.6373 11.93 46.0773 11.47C45.5173 11.01 44.8773 10.78 44.1573 10.78C43.4173 10.78 42.7673 11.01 42.2073 11.47C41.6473 11.93 41.2073 12.57 40.8873 13.39C40.5873 14.19 40.4373 15.13 40.4373 16.21C40.4373 17.29 40.5873 18.23 40.8873 19.03C41.2073 19.83 41.6473 20.46 42.2073 20.92C42.7673 21.38 43.4173 21.61 44.1573 21.61C44.8773 21.61 45.5073 21.38 46.0473 20.92C46.6073 20.46 47.0473 19.83 47.3673 19.03C47.6873 18.21 47.8473 17.27 47.8473 16.21ZM70.325 16.21C70.325 17.97 69.985 19.54 69.305 20.92C68.645 22.28 67.725 23.35 66.545 24.13C65.385 24.91 64.065 25.3 62.585 25.3C61.105 25.3 59.775 24.91 58.595 24.13C57.435 23.35 56.515 22.28 55.835 20.92C55.175 19.54 54.845 17.97 54.845 16.21C54.845 14.45 55.175 12.89 55.835 11.53C56.515 10.15 57.435 9.07 58.595 8.29C59.775 7.49 61.105 7.09 62.585 7.09C64.065 7.09 65.385 7.49 66.545 8.29C67.725 9.07 68.645 10.15 69.305 11.53C69.985 12.89 70.325 14.45 70.325 16.21ZM66.275 16.21C66.275 15.13 66.115 14.19 65.795 13.39C65.495 12.57 65.065 11.93 64.505 11.47C63.945 11.01 63.305 10.78 62.585 10.78C61.845 10.78 61.195 11.01 60.635 11.47C60.075 11.93 59.635 12.57 59.315 13.39C59.015 14.19 58.865 15.13 58.865 16.21C58.865 17.29 59.015 18.23 59.315 19.03C59.635 19.83 60.075 20.46 60.635 20.92C61.195 21.38 61.845 21.61 62.585 21.61C63.305 21.61 63.935 21.38 64.475 20.92C65.035 20.46 65.475 19.83 65.795 19.03C66.115 18.21 66.275 17.27 66.275 16.21ZM88.7527 16.21C88.7527 17.97 88.4127 19.54 87.7327 20.92C87.0727 22.28 86.1527 23.35 84.9727 24.13C83.8127 24.91 82.4927 25.3 81.0127 25.3C79.5327 25.3 78.2027 24.91 77.0227 24.13C75.8627 23.35 74.9427 22.28 74.2627 20.92C73.6027 19.54 73.2727 17.97 73.2727 16.21C73.2727 14.45 73.6027 12.89 74.2627 11.53C74.9427 10.15 75.8627 9.07 77.0227 8.29C78.2027 7.49 79.5327 7.09 81.0127 7.09C82.4927 7.09 83.8127 7.49 84.9727 8.29C86.1527 9.07 87.0727 10.15 87.7327 11.53C88.4127 12.89 88.7527 14.45 88.7527 16.21ZM84.7027 16.21C84.7027 15.13 84.5427 14.19 84.2227 13.39C83.9227 12.57 83.4927 11.93 82.9327 11.47C82.3727 11.01 81.7327 10.78 81.0127 10.78C80.2727 10.78 79.6227 11.01 79.0627 11.47C78.5027 11.93 78.0627 12.57 77.7427 13.39C77.4427 14.19 77.2927 15.13 77.2927 16.21C77.2927 17.29 77.4427 18.23 77.7427 19.03C78.0627 19.83 78.5027 20.46 79.0627 20.92C79.6227 21.38 80.2727 21.61 81.0127 21.61C81.7327 21.61 82.3627 21.38 82.9027 20.92C83.4627 20.46 83.9027 19.83 84.2227 19.03C84.5427 18.21 84.7027 17.27 84.7027 16.21Z" fill="#0ED746"/>
</svg>
