<svg width="88" height="29" viewBox="0 0 88 29" fill="none" xmlns="http://www.w3.org/2000/svg">
<path d="M7.55 23.83L9.23 23.86V28.21H7.55V23.83ZM7.7 23.5V5.23L9.05 5.02V23.56L7.7 23.5ZM7.55 0.549998H9.23V4.84L7.55 5.05V0.549998ZM14.24 8.17C14 7.89 13.68 7.62 13.28 7.36C12.88 7.1 12.43 6.87 11.93 6.67C11.43 6.45 10.88 6.28 10.28 6.16C9.7 6.02 9.09 5.95 8.45 5.95C6.81 5.95 5.6 6.26 4.82 6.88C4.04 7.5 3.65 8.35 3.65 9.43C3.65 10.19 3.85 10.79 4.25 11.23C4.65 11.67 5.26 12.03 6.08 12.31C6.92 12.59 7.98 12.88 9.26 13.18C10.74 13.5 12.02 13.89 13.1 14.35C14.18 14.81 15.01 15.43 15.59 16.21C16.17 16.97 16.46 17.99 16.46 19.27C16.46 20.29 16.26 21.18 15.86 21.94C15.48 22.68 14.94 23.3 14.24 23.8C13.54 24.28 12.72 24.64 11.78 24.88C10.84 25.1 9.82 25.21 8.72 25.21C7.64 25.21 6.58 25.1 5.54 24.88C4.52 24.64 3.55 24.3 2.63 23.86C1.71 23.42 0.85 22.87 0.05 22.21L1.34 19.93C1.66 20.27 2.07 20.61 2.57 20.95C3.09 21.27 3.67 21.57 4.31 21.85C4.97 22.13 5.68 22.36 6.44 22.54C7.2 22.7 7.98 22.78 8.78 22.78C10.3 22.78 11.48 22.51 12.32 21.97C13.16 21.41 13.58 20.6 13.58 19.54C13.58 18.74 13.34 18.1 12.86 17.62C12.4 17.14 11.71 16.74 10.79 16.42C9.87 16.1 8.75 15.78 7.43 15.46C5.99 15.1 4.78 14.71 3.8 14.29C2.82 13.85 2.08 13.28 1.58 12.58C1.1 11.88 0.86 10.97 0.86 9.85C0.86 8.49 1.19 7.34 1.85 6.4C2.51 5.46 3.42 4.75 4.58 4.27C5.74 3.79 7.05 3.55 8.51 3.55C9.47 3.55 10.36 3.65 11.18 3.85C12.02 4.05 12.8 4.33 13.52 4.69C14.24 5.05 14.9 5.48 15.5 5.98L14.24 8.17ZM18.9521 25C18.9521 24.2 19.0121 23.45 19.1321 22.75C19.2721 22.05 19.5121 21.38 19.8521 20.74C20.2121 20.1 20.7121 19.49 21.3521 18.91C21.9921 18.31 22.8221 17.73 23.8421 17.17C24.4421 16.83 25.0421 16.51 25.6421 16.21C26.2621 15.91 26.8321 15.59 27.3521 15.25C27.8921 14.91 28.3221 14.54 28.6421 14.14C28.9621 13.72 29.1221 13.24 29.1221 12.7C29.1221 12.24 28.9821 11.8 28.7021 11.38C28.4421 10.94 28.0421 10.59 27.5021 10.33C26.9821 10.05 26.3321 9.91 25.5521 9.91C24.9521 9.91 24.4021 9.99 23.9021 10.15C23.4221 10.31 22.9821 10.52 22.5821 10.78C22.2021 11.02 21.8621 11.28 21.5621 11.56C21.2821 11.82 21.0421 12.06 20.8421 12.28L19.1921 10.42C19.3521 10.24 19.6221 10 20.0021 9.7C20.3821 9.38 20.8621 9.06 21.4421 8.74C22.0221 8.42 22.6921 8.15 23.4521 7.93C24.2321 7.69 25.0821 7.57 26.0021 7.57C27.2421 7.57 28.3021 7.79 29.1821 8.23C30.0821 8.65 30.7721 9.23 31.2521 9.97C31.7321 10.69 31.9721 11.5 31.9721 12.4C31.9721 13.18 31.8021 13.86 31.4621 14.44C31.1421 15.02 30.7221 15.53 30.2021 15.97C29.7021 16.41 29.1721 16.79 28.6121 17.11C28.0721 17.41 27.5821 17.67 27.1421 17.89C26.2421 18.33 25.4721 18.73 24.8321 19.09C24.1921 19.45 23.6621 19.81 23.2421 20.17C22.8421 20.51 22.5121 20.87 22.2521 21.25C22.0121 21.63 21.8321 22.08 21.7121 22.6H32.3021V25H18.9521ZM50.5168 16.21C50.5168 17.97 50.1868 19.54 49.5268 20.92C48.8668 22.28 47.9668 23.35 46.8268 24.13C45.6868 24.91 44.3868 25.3 42.9268 25.3C41.4668 25.3 40.1668 24.91 39.0268 24.13C37.8868 23.35 36.9868 22.28 36.3268 20.92C35.6668 19.54 35.3368 17.97 35.3368 16.21C35.3368 14.45 35.6668 12.89 36.3268 11.53C36.9868 10.15 37.8868 9.07 39.0268 8.29C40.1668 7.49 41.4668 7.09 42.9268 7.09C44.3868 7.09 45.6868 7.49 46.8268 8.29C47.9668 9.07 48.8668 10.15 49.5268 11.53C50.1868 12.89 50.5168 14.45 50.5168 16.21ZM47.8468 16.21C47.8468 14.89 47.6368 13.73 47.2168 12.73C46.7968 11.73 46.2168 10.95 45.4768 10.39C44.7368 9.83 43.8868 9.55 42.9268 9.55C41.9468 9.55 41.0868 9.83 40.3468 10.39C39.6068 10.95 39.0268 11.73 38.6068 12.73C38.1868 13.73 37.9768 14.89 37.9768 16.21C37.9768 17.53 38.1868 18.69 38.6068 19.69C39.0268 20.67 39.6068 21.44 40.3468 22C41.0868 22.56 41.9468 22.84 42.9268 22.84C43.8868 22.84 44.7368 22.56 45.4768 22C46.2168 21.44 46.7968 20.67 47.2168 19.69C47.6368 18.69 47.8468 17.53 47.8468 16.21ZM68.9445 16.21C68.9445 17.97 68.6145 19.54 67.9545 20.92C67.2945 22.28 66.3945 23.35 65.2545 24.13C64.1145 24.91 62.8145 25.3 61.3545 25.3C59.8945 25.3 58.5945 24.91 57.4545 24.13C56.3145 23.35 55.4145 22.28 54.7545 20.92C54.0945 19.54 53.7645 17.97 53.7645 16.21C53.7645 14.45 54.0945 12.89 54.7545 11.53C55.4145 10.15 56.3145 9.07 57.4545 8.29C58.5945 7.49 59.8945 7.09 61.3545 7.09C62.8145 7.09 64.1145 7.49 65.2545 8.29C66.3945 9.07 67.2945 10.15 67.9545 11.53C68.6145 12.89 68.9445 14.45 68.9445 16.21ZM66.2745 16.21C66.2745 14.89 66.0645 13.73 65.6445 12.73C65.2245 11.73 64.6445 10.95 63.9045 10.39C63.1645 9.83 62.3145 9.55 61.3545 9.55C60.3745 9.55 59.5145 9.83 58.7745 10.39C58.0345 10.95 57.4545 11.73 57.0345 12.73C56.6145 13.73 56.4045 14.89 56.4045 16.21C56.4045 17.53 56.6145 18.69 57.0345 19.69C57.4545 20.67 58.0345 21.44 58.7745 22C59.5145 22.56 60.3745 22.84 61.3545 22.84C62.3145 22.84 63.1645 22.56 63.9045 22C64.6445 21.44 65.2245 20.67 65.6445 19.69C66.0645 18.69 66.2745 17.53 66.2745 16.21ZM87.3723 16.21C87.3723 17.97 87.0423 19.54 86.3823 20.92C85.7223 22.28 84.8223 23.35 83.6823 24.13C82.5423 24.91 81.2423 25.3 79.7823 25.3C78.3223 25.3 77.0223 24.91 75.8823 24.13C74.7423 23.35 73.8423 22.28 73.1823 20.92C72.5223 19.54 72.1923 17.97 72.1923 16.21C72.1923 14.45 72.5223 12.89 73.1823 11.53C73.8423 10.15 74.7423 9.07 75.8823 8.29C77.0223 7.49 78.3223 7.09 79.7823 7.09C81.2423 7.09 82.5423 7.49 83.6823 8.29C84.8223 9.07 85.7223 10.15 86.3823 11.53C87.0423 12.89 87.3723 14.45 87.3723 16.21ZM84.7023 16.21C84.7023 14.89 84.4923 13.73 84.0723 12.73C83.6523 11.73 83.0723 10.95 82.3323 10.39C81.5923 9.83 80.7423 9.55 79.7823 9.55C78.8023 9.55 77.9423 9.83 77.2023 10.39C76.4623 10.95 75.8823 11.73 75.4623 12.73C75.0423 13.73 74.8323 14.89 74.8323 16.21C74.8323 17.53 75.0423 18.69 75.4623 19.69C75.8823 20.67 76.4623 21.44 77.2023 22C77.9423 22.56 78.8023 22.84 79.7823 22.84C80.7423 22.84 81.5923 22.56 82.3323 22C83.0723 21.44 83.6523 20.67 84.0723 19.69C84.4923 18.69 84.7023 17.53 84.7023 16.21Z" fill="#323232"/>
</svg>
